<svg xmlns="http://www.w3.org/2000/svg" width="48" height="46" viewBox="0 0 51.326 49.272">
  <path id="frontend" d="M48.882,45.569a1.237,1.237,0,0,1-1.227,1.24H3.671a1.231,1.231,0,0,1-1.227-1.24V12.318H48.882ZM3.671,2.464H47.655A1.23,1.23,0,0,1,48.881,3.7V9.855H2.444V3.7A1.237,1.237,0,0,1,3.671,2.464ZM51.326,3.7V45.569a3.693,3.693,0,0,1-3.672,3.7H3.671A3.685,3.685,0,0,1,0,45.569V3.7A3.7,3.7,0,0,1,2.444.228,3.593,3.593,0,0,1,3.671,0H47.655a3.684,3.684,0,0,1,3.67,3.7ZM6.11,7.391A1.232,1.232,0,1,0,4.888,6.159,1.225,1.225,0,0,0,6.11,7.391Zm3.667,0A1.232,1.232,0,1,0,8.555,6.159,1.226,1.226,0,0,0,9.777,7.391Zm3.666,0a1.232,1.232,0,1,0-1.222-1.232,1.225,1.225,0,0,0,1.222,1.232ZM36.3,21.3a1.3,1.3,0,0,0-.18-.12,1.2,1.2,0,0,0-1.548.12,1.237,1.237,0,0,0,0,1.742l1.548,1.56,3.63,3.66-3.63,3.661-1.548,1.56a1.237,1.237,0,0,0,0,1.742,1.2,1.2,0,0,0,1.548.12,1.074,1.074,0,0,0,.18-.12l6.043-6.092a1.237,1.237,0,0,0,0-1.742L36.3,21.3Zm-7.067-3.973a1.284,1.284,0,0,0-1.584.7l-.175.45L23.354,29.1l-3.717,9.577a1.223,1.223,0,1,0,2.276.9l1.441-3.715,4.753-12.242,1.821-4.691a1.249,1.249,0,0,0,.078-.449,1.225,1.225,0,0,0-.77-1.148ZM16.887,23.043a1.237,1.237,0,0,0,0-1.742,1.213,1.213,0,0,0-1.729,0l-1.715,1.73L9.115,27.392a1.237,1.237,0,0,0,0,1.742L13.443,33.5l1.715,1.73a1.216,1.216,0,0,0,1.728,0,1.237,1.237,0,0,0,0-1.742l-3.443-3.472-1.735-1.749,1.735-1.748,3.443-3.472Z" fill="#f82929" fill-rule="evenodd"/>
</svg>
