<svg xmlns="http://www.w3.org/2000/svg" width="26" height="26" viewBox="0 0 24 24">
  <path id="sun-solid" d="M12,7.5A4.5,4.5,0,1,0,16.5,12,4.507,4.507,0,0,0,12,7.5Zm11.551,3.773L19.112,9.056l1.57-4.706a.811.811,0,0,0-1.027-1.027l-4.706,1.57L12.727.45a.812.812,0,0,0-1.453,0L9.057,4.889,4.346,3.319A.811.811,0,0,0,3.319,4.345l1.57,4.706L.45,11.273a.812.812,0,0,0,0,1.453l4.439,2.217-1.57,4.711a.811.811,0,0,0,1.027,1.027l4.706-1.57,2.217,4.439a.812.812,0,0,0,1.453,0l2.217-4.439,4.706,1.57a.811.811,0,0,0,1.027-1.027L19.1,14.948l4.439-2.217a.813.813,0,0,0,.009-1.458Zm-7.308,4.969a6,6,0,1,1,0-8.484A6.007,6.007,0,0,1,16.243,16.242Z" fill="#fcf4f4"/>
</svg>
