<svg xmlns="http://www.w3.org/2000/svg"  width="38.176" height="27.284" viewBox="0 0 41.688 32.352">
  <path id="frontend" d="M39.7,35.514a.977.977,0,0,1-1,.95H2.981a1.031,1.031,0,0,1-.707-.28.916.916,0,0,1-.289-.67V15.436H39.7ZM2.981,7.887H38.7a.972.972,0,0,1,1,.944v6.605H1.985V8.831A.977.977,0,0,1,2.981,7.887Zm38.7.944V35.514A2.916,2.916,0,0,1,38.7,38.352H2.981A2.91,2.91,0,0,1,0,35.514V8.831A2.845,2.845,0,0,1,1.985,6.175a3.074,3.074,0,0,1,1-.175H38.7a2.91,2.91,0,0,1,2.981,2.831ZM4.962,11.662a.945.945,0,1,0-.992-.944A.968.968,0,0,0,4.962,11.662Zm2.978,0a.945.945,0,1,0-.992-.944A.968.968,0,0,0,7.94,11.662Zm2.977,0a.945.945,0,1,0-.992-.944A.968.968,0,0,0,10.918,11.662Zm18.567,6.162a1.066,1.066,0,0,0-.146-.092,1.017,1.017,0,0,0-1.257.092.91.91,0,0,0,0,1.334l1.257,1.2,2.948,2.8-2.948,2.8-1.257,1.2a.91.91,0,0,0,0,1.334,1.017,1.017,0,0,0,1.257.092.878.878,0,0,0,.146-.092l4.908-4.667a.91.91,0,0,0,0-1.334l-4.908-4.665ZM23.745,14.78a1.021,1.021,0,0,0-.917.118.935.935,0,0,0-.369.418l-.142.344L18.968,23.8l-3.019,7.337a.927.927,0,0,0,.563,1.223,1.047,1.047,0,0,0,.761-.015.961.961,0,0,0,.525-.519l1.171-2.846,3.86-9.378L24.307,16a.908.908,0,0,0,.063-.344.94.94,0,0,0-.625-.879Zm-10.03,4.378a.91.91,0,0,0,0-1.334,1.028,1.028,0,0,0-1.4,0l-1.393,1.325L7.4,22.489a.91.91,0,0,0,0,1.334l3.515,3.342,1.393,1.325a1.03,1.03,0,0,0,1.4,0,.91.91,0,0,0,0-1.334l-2.8-2.659-1.409-1.34,1.409-1.339,2.8-2.659Z" transform="translate(0 -6)" fill="#fff" fill-rule="evenodd"/>
</svg>
