<svg xmlns="http://www.w3.org/2000/svg" width="38.176" height="27.284" viewBox="0 0 38.176 27.284"><g transform="translate(0.25 0.25)"><g transform="translate(6.562 12.913)"><path d="M26.453,22.885a.6.6,0,0,1-.415-.165l-6.99-6.558a.607.607,0,1,1,.832-.884l6.99,6.558a.607.607,0,0,1-.417,1.05Z" transform="translate(-2.511 -15.111)" fill="#f82929" stroke="#f82929" stroke-width="0.5"/><path d="M6.01,22.885a.607.607,0,0,1-.417-1.05l6.993-6.558a.607.607,0,1,1,.832.884L6.425,22.719A.6.6,0,0,1,6.01,22.885Z" transform="translate(-5.402 -15.111)" fill="#f82929" stroke="#f82929" stroke-width="0.5"/></g><path d="M34.639,31.266H3.037A3.041,3.041,0,0,1,0,28.229V7.519A3.041,3.041,0,0,1,3.037,4.482h31.6a3.041,3.041,0,0,1,3.037,3.037v20.71A3.041,3.041,0,0,1,34.639,31.266ZM3.037,5.7A1.825,1.825,0,0,0,1.215,7.519v20.71a1.825,1.825,0,0,0,1.822,1.822h31.6a1.825,1.825,0,0,0,1.822-1.822V7.519A1.825,1.825,0,0,0,34.639,5.7Z" transform="translate(0 -4.482)" fill="#f82929" stroke="#f82929" stroke-width="0.5"/><path d="M18.7,20.755a3.4,3.4,0,0,1-2.231-.8L.867,6.343a.607.607,0,1,1,.8-.916l15.6,13.607a2.273,2.273,0,0,0,2.863,0L35.707,5.449a.608.608,0,1,1,.8.916L20.927,19.95A3.394,3.394,0,0,1,18.7,20.755Z" transform="translate(0.141 -4.311)" fill="#f82929" stroke="#f82929" stroke-width="0.5"/></g></svg>